<svg width="50" height="50" viewBox="0 0 50 50" fill="none" xmlns="http://www.w3.org/2000/svg">
<rect width="50" height="50" fill="#4A3A5E"/>
<path d="M20.84 22.98C19.8933 22.98 19.12 22.6867 18.52 22.1C17.92 21.5 17.62 20.74 17.62 19.82C17.62 18.8867 17.92 18.1267 18.52 17.54C19.12 16.9533 19.8867 16.66 20.82 16.66C21.7667 16.66 22.5333 16.9533 23.12 17.54C23.72 18.1267 24.02 18.8867 24.02 19.82C24.02 20.74 23.72 21.5 23.12 22.1C22.5333 22.6867 21.7733 22.98 20.84 22.98ZM19.8 31.08L28.3 16.98H30.1L21.6 31.08H19.8ZM19.56 21.12C19.8933 21.4533 20.3133 21.62 20.82 21.62C21.34 21.62 21.7667 21.4533 22.1 21.12C22.4467 20.7733 22.62 20.34 22.62 19.82C22.62 19.3 22.4467 18.8733 22.1 18.54C21.7667 18.1933 21.34 18.02 20.82 18.02C20.3133 18.02 19.8933 18.1933 19.56 18.54C19.2267 18.8733 19.06 19.3 19.06 19.82C19.06 20.34 19.2267 20.7733 19.56 21.12ZM31.64 30.24C31.0533 30.8133 30.2933 31.1 29.36 31.1C28.4267 31.1 27.66 30.8133 27.06 30.24C26.4733 29.6533 26.18 28.9 26.18 27.98C26.18 27.0467 26.4733 26.2933 27.06 25.72C27.66 25.1333 28.4267 24.84 29.36 24.84C30.2933 24.84 31.0533 25.1333 31.64 25.72C32.24 26.2933 32.54 27.0467 32.54 27.98C32.54 28.9 32.24 29.6533 31.64 30.24ZM28.08 29.24C28.4133 29.5733 28.84 29.74 29.36 29.74C29.88 29.74 30.3 29.5733 30.62 29.24C30.9533 28.9067 31.12 28.48 31.12 27.96C31.12 27.6267 31.0467 27.3267 30.9 27.06C30.7533 26.7933 30.54 26.5867 30.26 26.44C29.9933 26.28 29.6933 26.2 29.36 26.2C28.84 26.2 28.4133 26.3667 28.08 26.7C27.76 27.0333 27.6 27.46 27.6 27.98C27.6 28.4867 27.76 28.9067 28.08 29.24Z" fill="white"/>
</svg>
