<svg width="737" height="368" viewBox="0 0 737 368" fill="none" xmlns="http://www.w3.org/2000/svg">
<mask id="mask0_446_1108" style="mask-type:alpha" maskUnits="userSpaceOnUse" x="0" y="0" width="737" height="368">
<path d="M-0.000122827 339.1L-0.00012207 356.413C208.727 356.413 432.516 265.52 616.497 107.539L605.738 94.5545C423.909 250.371 203.347 339.1 -0.000122827 339.1Z" fill="#4A3B5F"/>
<path d="M601.43 108.62L605.734 109.703C607.886 110.785 661.681 127.016 696.11 102.128C731.615 77.2408 746.678 38.2867 730.54 15.5634C723.008 4.74284 707.945 -1.74953 689.655 0.414583C672.44 1.49665 654.15 10.1531 638.011 22.0558C603.582 46.9431 602.506 103.21 602.506 105.374L602.506 108.62L601.43 108.62ZM725.16 36.1225C725.16 53.4355 712.249 76.1587 689.655 92.3896C664.909 109.703 627.252 103.21 614.341 98.882C615.417 85.8973 619.721 46.9431 644.467 29.6302C659.529 18.8096 676.744 12.3172 690.731 11.2352C703.642 10.1531 715.477 13.3993 720.856 22.0558C724.084 25.3019 725.16 30.7122 725.16 36.1225Z" fill="#4A3B5F"/>
<path d="M304.479 206.006C304.479 240.632 321.694 273.094 321.694 275.258L322.77 279.586L327.073 278.504C329.225 278.504 393.78 265.519 416.374 220.073C438.968 173.544 433.589 124.851 404.539 111.867C375.489 96.7179 334.605 122.687 313.087 169.216C306.631 180.036 304.479 194.103 304.479 206.006ZM330.301 265.519C323.846 252.534 306.631 208.17 322.77 173.544C341.06 133.508 377.641 109.703 400.235 121.605C422.829 132.426 424.981 174.626 406.691 214.662C390.552 248.206 345.364 262.273 330.301 265.519Z" fill="#4A3B5F"/>
<path d="M323.845 278.504L324.921 282.832C325.997 284.996 348.591 346.673 397.007 361.822C419.601 368.315 443.271 369.397 463.713 363.986C484.155 358.576 498.142 346.673 502.446 331.525C506.75 315.294 501.37 299.063 487.383 283.914C474.472 268.765 454.03 256.862 430.36 250.37C383.02 235.221 330.3 275.257 328.148 277.422L323.845 278.504ZM491.687 319.622C491.687 321.786 491.687 325.032 490.611 327.196C486.307 339.099 475.548 347.755 460.485 351.002C443.271 355.33 421.753 355.33 400.234 348.838C364.729 338.017 343.211 295.817 337.832 281.75C349.667 274.175 390.551 248.206 427.132 259.027C448.65 265.519 466.941 276.34 478.776 289.324C487.383 301.227 491.687 309.883 491.687 319.622Z" fill="#4A3B5F"/>
<path d="M457.26 114.032C457.26 152.986 484.158 187.612 485.234 189.776L487.386 194.104L491.689 193.022C493.841 191.94 551.94 170.299 563.775 124.852C570.231 103.211 570.231 80.4878 564.851 63.1748C559.472 44.7798 548.713 30.713 534.726 27.4669C505.676 19.8924 472.323 49.108 459.412 95.6366C458.336 99.9648 457.26 107.539 457.26 114.032ZM491.689 178.955C484.158 167.053 461.564 129.18 470.171 97.8007C480.93 58.8466 509.98 30.7131 531.498 37.2054C542.257 39.3695 549.789 50.1901 554.092 65.3389C558.396 81.5698 558.396 101.047 553.016 121.606C543.333 154.068 504.6 172.463 491.689 178.955Z" fill="#4A3B5F"/>
<path d="M487.379 193.021L489.531 197.349C490.607 199.513 521.808 252.534 568.072 257.944C615.412 263.354 655.221 244.959 659.525 213.58C663.828 183.282 629.399 155.149 580.983 149.738C534.719 144.328 493.834 188.692 490.607 190.857L487.379 193.021ZM647.69 208.169L647.69 210.334C645.538 233.057 608.957 249.288 569.148 244.959C535.795 240.631 508.897 206.005 501.366 194.103C512.125 184.364 543.326 155.149 578.831 159.477C617.564 164.887 647.69 185.446 647.69 208.169Z" fill="#4A3B5F"/>
</mask>
<g mask="url(#mask0_446_1108)">
<rect width="737" height="367" fill="#4A3A5E" fill-opacity="0.2"/>
</g>
</svg>
