<svg width="50" height="50" viewBox="0 0 50 50" fill="none" xmlns="http://www.w3.org/2000/svg">
<path d="M49.9987 10.5198C49.9965 10.4183 49.9772 10.3181 49.942 10.2237C49.9328 10.1975 49.9228 10.1735 49.9112 10.1486C49.8762 10.0709 49.8303 9.9993 49.7751 9.93598C49.7651 9.92467 49.7584 9.9113 49.748 9.90051C49.6904 9.84048 49.6248 9.78959 49.5532 9.7495L32.0532 0.100349C31.8132 -0.0322575 31.5269 -0.033491 31.2858 0.0969571L0.452441 16.7637C0.379297 16.8041 0.312402 16.8557 0.253809 16.917C0.242188 16.9289 0.234473 16.9434 0.223535 16.9559C0.169531 17.0183 0.124414 17.0887 0.0897461 17.1648C0.0782227 17.1897 0.0676758 17.2135 0.0583984 17.2397C0.0220703 17.3355 0.00224609 17.4375 0 17.5407L0.000292969 17.5428L0 17.544V39.4738C0 39.8002 0.17207 40.0995 0.446777 40.2507L17.9468 49.8999C17.982 49.9169 18.0183 49.9314 18.0555 49.9431C18.0779 49.9515 18.0993 49.9632 18.1223 49.9696C18.1908 49.9891 18.2614 49.9994 18.3324 50L18.3328 49.9999L18.3332 50L18.3342 49.9997C18.4548 49.9971 18.5734 49.967 18.6818 49.9114C18.6921 49.9065 18.7039 49.9087 18.7141 49.9032L49.5474 33.2365C49.8251 33.0862 49.9997 32.785 49.9998 32.4561V10.5265L49.9987 10.5198ZM17.5 47.6734L1.6667 38.9432V18.9936L17.5 27.7238V47.6734ZM18.337 26.205L2.64326 17.5517L31.663 1.86546L47.3567 10.5187L18.337 26.205ZM48.3333 31.9204L19.1667 47.6864V27.7289L48.3334 11.9631V31.9204H48.3333Z" fill="#4A3A5E"/>
<path d="M29.0136 17.5666C29.0077 17.5394 29.0005 17.5124 28.9919 17.486C28.9802 17.462 28.9593 17.4477 28.9458 17.4252C28.8847 17.3267 28.8064 17.2412 28.7153 17.173C28.694 17.1576 28.6809 17.1346 28.6578 17.121L18.7331 11.2702C18.7084 11.2604 18.6833 11.2519 18.6578 11.2448C18.5586 11.1991 18.452 11.1739 18.3438 11.1706C18.2898 11.1695 18.2358 11.1741 18.1828 11.1845C18.1289 11.1945 18.0761 11.2102 18.0251 11.2314C17.998 11.2378 17.9712 11.2457 17.9449 11.2552L7.69463 16.7989C7.41778 16.9487 7.24327 17.2485 7.24219 17.5762C7.24112 17.9039 7.41358 18.2049 7.68936 18.3568L17.9645 24.0149C18.2044 24.1469 18.4902 24.148 18.7311 24.0179L28.631 18.6669C28.6356 18.6645 28.638 18.6597 28.6426 18.6572C28.7279 18.6085 28.8044 18.5443 28.8685 18.4675C28.8852 18.4478 28.898 18.4268 28.9128 18.4057C28.9363 18.3772 28.958 18.3469 28.9777 18.3153C28.9873 18.2889 28.9955 18.2619 29.0024 18.2347C29.0253 18.1802 29.0427 18.1234 29.0543 18.065C29.0771 17.9579 29.0789 17.847 29.06 17.7392C29.0502 17.68 29.0347 17.6222 29.0136 17.5666ZM17.5006 21.7792L9.88624 17.5863L17.5006 13.4683V21.7792ZM19.1673 21.8099V13.5372L26.4881 17.853L19.1673 21.8099Z" fill="#4A3A5E"/>
<path d="M42.4737 10.2911C42.4642 10.2322 42.4486 10.1746 42.4276 10.119C42.4217 10.0917 42.4145 10.0646 42.406 10.0379C42.394 10.0137 42.3731 9.99908 42.3594 9.97646C42.2979 9.87768 42.2192 9.79195 42.1276 9.72379C42.1068 9.70878 42.094 9.68627 42.0715 9.67301L32.1467 3.82227C32.1221 3.81251 32.0971 3.80408 32.0716 3.79699C31.8706 3.70406 31.6428 3.69923 31.4385 3.78362C31.4114 3.79 31.3848 3.79791 31.3585 3.80727L21.1087 9.35095C20.8318 9.50073 20.6573 9.80048 20.6563 10.1282C20.6552 10.4559 20.8276 10.7569 21.1034 10.9088L31.3785 16.5669C31.6185 16.6989 31.9043 16.7 32.1451 16.5699L42.0454 11.219C42.0501 11.2165 42.0526 11.2117 42.0572 11.209C42.1421 11.1605 42.2181 11.0965 42.2818 11.0202C42.2992 10.9997 42.3124 10.978 42.3277 10.9561C42.3508 10.928 42.372 10.8983 42.3912 10.8673C42.4006 10.8413 42.4087 10.8149 42.4155 10.788C42.4388 10.7329 42.4564 10.6755 42.4682 10.6165C42.4907 10.5095 42.4926 10.3989 42.4737 10.2911ZM30.9147 14.3312L23.2999 10.1383L30.9147 6.02005V14.3312ZM32.5813 14.3618V6.08944L39.9021 10.4048L32.5813 14.3618Z" fill="#4A3A5E"/>
</svg>
