<svg width="50" height="42" viewBox="0 0 50 42" fill="none" xmlns="http://www.w3.org/2000/svg">
<path d="M46.5273 0H3.47219C1.55777 0 0 1.92741 0 4.2961V20.6213C0 22.99 1.55777 24.9174 3.47219 24.9174H46.5273C48.4417 24.9174 49.9995 22.99 49.9995 20.6213L50 4.2961C50 1.92695 48.4422 0 46.5278 0H46.5273ZM3.47219 1.71828H46.5273C47.6758 1.71828 48.6108 2.87503 48.6108 4.2961V16.3249H1.389V4.2961C1.389 2.87506 2.32342 1.71828 3.47194 1.71828H3.47219ZM22.222 23.1988H7.63882V21.4805H42.3607V23.1988H22.222ZM46.5273 23.1988H43.7498V19.7622H6.25019V23.1988H3.47269C2.32417 23.1988 1.38925 22.042 1.38925 20.621V18.0431H48.611V20.621C48.6105 22.042 47.6761 23.1988 46.5276 23.1988H46.5273Z" fill="#4A3A5E"/>
<path d="M18.4025 28.3545H17.0138C17.0138 29.1001 16.804 29.4301 16.4867 29.9301C16.1026 30.5333 15.625 31.2854 15.625 32.7244C15.625 34.164 16.1026 34.9156 16.4867 35.5201C16.804 36.0206 17.0138 36.35 17.0138 37.0969C17.0138 37.8439 16.804 38.1745 16.4858 38.6738C16.1026 39.2777 15.625 40.0305 15.625 41.4702H17.0138C17.0138 40.7232 17.2235 40.3925 17.5417 39.8933C17.9249 39.2888 18.403 38.536 18.403 37.0969C18.403 35.6579 17.9259 34.9057 17.5417 34.3013C17.2235 33.802 17.0138 33.4713 17.0138 32.7244C17.0138 31.9774 17.2235 31.6481 17.5408 31.1488C17.9249 30.5443 18.4025 29.7935 18.4025 28.3545Z" fill="#4A3A5E"/>
<path d="M26.7346 28.3545H25.3458C25.3458 29.1001 25.1361 29.4301 24.8188 29.9301C24.4346 30.5333 23.957 31.2854 23.957 32.7244C23.957 34.164 24.4347 34.9156 24.8188 35.5201C25.1361 36.0206 25.3458 36.35 25.3458 37.0969C25.3458 37.8439 25.1361 38.1745 24.8178 38.6738C24.4347 39.2777 23.957 40.0305 23.957 41.4702H25.3458C25.3458 40.7232 25.5555 40.3925 25.8738 39.8933C26.2569 39.2888 26.735 38.536 26.735 37.0969C26.735 35.6579 26.2579 34.9057 25.8738 34.3013C25.5555 33.802 25.3458 33.4713 25.3458 32.7244C25.3458 31.9774 25.5555 31.6481 25.8728 31.1488C26.2569 30.5443 26.7346 29.7935 26.7346 28.3545Z" fill="#4A3A5E"/>
<path d="M35.0666 28.3545H33.6778C33.6778 29.1001 33.4681 29.4301 33.1508 29.9301C32.7667 30.5333 32.2891 31.2854 32.2891 32.7244C32.2891 34.164 32.7667 34.9156 33.1508 35.5201C33.4681 36.0206 33.6778 36.35 33.6778 37.0969C33.6778 37.8439 33.4681 38.1745 33.1498 38.6738C32.7667 39.2777 32.2891 40.0305 32.2891 41.4702H33.6778C33.6778 40.7232 33.8876 40.3925 34.2058 39.8933C34.589 39.2888 35.0671 38.536 35.0671 37.0969C35.0671 35.6579 34.5899 34.9057 34.2058 34.3013C33.8876 33.802 33.6778 33.4713 33.6778 32.7244C33.6778 31.9774 33.8876 31.6481 34.2048 31.1488C34.589 30.5443 35.0666 29.7935 35.0666 28.3545Z" fill="#4A3A5E"/>
</svg>
