<svg width="50" height="50" viewBox="0 0 50 50" fill="none" xmlns="http://www.w3.org/2000/svg">
<path d="M16.0412 14.0827H16.0413C16.2723 14.0829 16.4721 13.9768 16.5826 13.8254L16.5901 13.8151L16.5903 13.8152C18.1021 11.8516 18.1214 9.2441 16.641 7.26259C15.1997 5.51238 15.1772 3.09134 16.5875 1.31838C16.7472 1.09053 16.696 0.77627 16.4108 0.601805L16.0412 14.0827ZM16.0412 14.0827C15.6479 14.0826 15.405 13.7999 15.4052 13.5408V13.5408M16.0412 14.0827L15.4052 13.5408M15.4052 13.5408C15.4052 13.4468 15.4346 13.3509 15.4953 13.2644C16.8395 11.5552 16.7968 9.22917 15.3942 7.5635C13.8665 5.50389 13.903 2.79751 15.4891 0.772052L15.4945 0.765129M15.4052 13.5408L15.4945 0.765129M15.4945 0.765129L15.4997 0.75802M15.4945 0.765129L15.4997 0.75802M15.4997 0.75802C15.6866 0.501267 16.0988 0.411145 16.4107 0.601746L15.4997 0.75802Z" fill="#4A3A5E" stroke="#4A3A5E"/>
<path d="M25.0917 14.0827H25.0916C24.6983 14.0826 24.4554 13.7999 24.4556 13.5408V13.5408C24.4556 13.4467 24.485 13.3507 24.5458 13.2642C25.888 11.5535 25.8423 9.22745 24.4377 7.56343C22.9122 5.50276 22.9512 2.7966 24.5392 0.772397L24.5448 0.765306L24.5501 0.758019C24.737 0.50124 25.1493 0.411127 25.4612 0.601805C25.7464 0.776103 25.7976 1.09042 25.6379 1.31838C24.2276 3.09134 24.2501 5.51238 25.6914 7.26258C27.1718 9.2441 27.1525 11.8516 25.6406 13.8152L25.6405 13.8151L25.6329 13.8255C25.5225 13.9768 25.3229 14.0829 25.0917 14.0827Z" fill="#4A3A5E" stroke="#4A3A5E"/>
<path d="M34.1431 14.0827H34.1433C34.3744 14.0829 34.574 13.9768 34.6845 13.8254L34.6921 13.8151L34.6922 13.8152C36.204 11.8516 36.2233 9.2441 34.743 7.26258C33.3017 5.51238 33.2792 3.09134 34.6894 1.31838C34.8491 1.09054 34.7979 0.77627 34.5128 0.601805L34.1431 14.0827ZM34.1431 14.0827C33.7499 14.0826 33.507 13.7999 33.5071 13.5408V13.5408M34.1431 14.0827L33.5071 13.5408M33.5071 13.5408C33.5072 13.4467 33.5366 13.3507 33.5974 13.2641C34.9384 11.5539 34.8928 9.22913 33.4893 7.56549C31.9627 5.50435 32.0017 2.79707 33.5907 0.772481L33.5963 0.765349M33.5071 13.5408L33.5963 0.765349M33.5963 0.765349L33.6017 0.758019M33.5963 0.765349L33.6017 0.758019M33.6017 0.758019C33.7886 0.501266 34.2008 0.411146 34.5127 0.601745L33.6017 0.758019Z" fill="#4A3A5E" stroke="#4A3A5E"/>
<path d="M44.3181 45.333H5.68178C2.77813 45.333 0.5 43.185 0.5 40.6247V21.8744C0.5 19.3141 2.77813 17.166 5.68178 17.166H44.3182C47.2218 17.166 49.5 19.3141 49.5 21.8744V40.6247C49.5 43.185 47.2217 45.333 44.3181 45.333ZM5.68178 18.2493C3.5647 18.2493 1.77269 19.8323 1.77269 21.8744V40.6247C1.77269 42.6668 3.5647 44.2497 5.68178 44.2497H44.3182C46.4353 44.2497 48.2273 42.6668 48.2273 40.6247V21.8744C48.2273 19.8323 46.4353 18.2493 44.3182 18.2493H5.68178Z" fill="#4A3A5E" stroke="#4A3A5E"/>
<path d="M7.9528 41.1662C7.55952 41.1662 7.31641 40.8836 7.31641 40.6245V21.8742C7.31641 21.6151 7.55952 21.3325 7.9528 21.3325C8.34609 21.3325 8.5892 21.6151 8.5892 21.8742V40.6245C8.5892 40.8837 8.34612 41.1662 7.9528 41.1662Z" fill="#4A3A5E" stroke="#4A3A5E"/>
<path d="M14.7731 41.1662C14.3798 41.1662 14.1367 40.8836 14.1367 40.6245V21.8742C14.1367 21.6151 14.3798 21.3325 14.7731 21.3325C15.1664 21.3325 15.4095 21.6151 15.4095 21.8742V40.6245C15.4095 40.8837 15.1664 41.1662 14.7731 41.1662Z" fill="#4A3A5E" stroke="#4A3A5E"/>
<path d="M21.5895 41.1662C21.1962 41.1662 20.9531 40.8836 20.9531 40.6245V21.8742C20.9531 21.6151 21.1962 21.3325 21.5895 21.3325C21.9828 21.3325 22.2259 21.6151 22.2259 21.8742V40.6245C22.2259 40.8837 21.9828 41.1662 21.5895 41.1662Z" fill="#4A3A5E" stroke="#4A3A5E"/>
<path d="M28.4098 41.1662C28.0166 41.1662 27.7734 40.8836 27.7734 40.6245V21.8742C27.7734 21.6151 28.0166 21.3325 28.4098 21.3325C28.8031 21.3325 29.0462 21.6151 29.0462 21.8742V40.6245C29.0462 40.8837 28.8032 41.1662 28.4098 41.1662Z" fill="#4A3A5E" stroke="#4A3A5E"/>
<path d="M35.2262 41.1662C34.833 41.1662 34.5898 40.8836 34.5898 40.6245V21.8742C34.5898 21.6151 34.833 21.3325 35.2262 21.3325C35.6195 21.3325 35.8626 21.6151 35.8626 21.8742V40.6245C35.8626 40.8837 35.6196 41.1662 35.2262 41.1662Z" fill="#4A3A5E" stroke="#4A3A5E"/>
<path d="M42.0466 41.1662C41.6533 41.1662 41.4102 40.8836 41.4102 40.6245V21.8742C41.4102 21.6151 41.6533 21.3325 42.0466 21.3325C42.4398 21.3325 42.683 21.6151 42.683 21.8742V40.6245C42.683 40.8837 42.4399 41.1662 42.0466 41.1662Z" fill="#4A3A5E" stroke="#4A3A5E"/>
<path d="M10.2262 49.5002C9.83296 49.5002 9.58984 49.2176 9.58984 48.9585V44.7917C9.58984 44.5326 9.83296 44.25 10.2262 44.25C10.6195 44.25 10.8626 44.5326 10.8626 44.7917V48.9585C10.8626 49.2176 10.6195 49.5002 10.2262 49.5002Z" fill="#4A3A5E" stroke="#4A3A5E"/>
<path d="M39.7731 49.5002C39.3798 49.5002 39.1367 49.2176 39.1367 48.9585V44.7917C39.1367 44.5326 39.3798 44.25 39.7731 44.25C40.1664 44.25 40.4095 44.5326 40.4095 44.7917V48.9584C40.4095 48.9584 40.4095 48.9584 40.4095 48.9585C40.4094 49.2177 40.1663 49.5002 39.7731 49.5002Z" fill="#4A3A5E" stroke="#4A3A5E"/>
</svg>
