<svg width="23" height="20" viewBox="0 0 23 20" fill="none" xmlns="http://www.w3.org/2000/svg">
<path d="M20.1424 13.9311L19.3374 9.90679C18.9617 7.97743 17.1677 6.57359 15.0747 6.57359H12.3453C12.4297 4.44263 11.4713 1.17423 7.26222 0.0295431C7.02455 -0.0352276 6.77926 0.00796716 6.58759 0.144751C6.39592 0.281535 6.28089 0.490295 6.28089 0.720675V2.11731L2.20983 4.03226C1.42781 4.39942 0.921821 5.16974 0.921821 5.99045C0.921821 6.84715 1.42781 7.60305 2.24048 7.97742L4.1035 8.8125L3.18353 14.0247L3.06084 13.9815C1.87249 13.5783 0.56146 14.1615 0.13212 15.2773C-0.289538 16.3932 0.331464 17.6243 1.51981 18.0202L3.58984 18.7185C6.12755 19.568 8.78794 20 11.502 20C14.2084 20 16.8687 19.568 19.4064 18.7185L21.4841 18.0202C22.0591 17.833 22.5191 17.4371 22.7798 16.9187C23.0405 16.4004 23.0712 15.8173 22.8641 15.2773C22.4655 14.2263 21.2694 13.6575 20.1424 13.9311ZM8.51191 15.2053C8.88762 13.9383 10.1143 13.0528 11.5096 13.0528C12.1307 13.0528 12.7286 13.2256 13.2423 13.5496C13.756 13.8807 14.1547 14.3414 14.3847 14.8814L14.63 15.4573C12.583 15.7741 10.49 15.7741 8.43526 15.4645L8.51191 15.2053ZM21.3921 16.3068C21.3078 16.4724 21.1545 16.602 20.9704 16.6668L18.8928 17.3651C14.147 18.9561 8.84924 18.9561 4.11118 17.3651L2.03351 16.6668C1.6425 16.5372 1.44315 16.134 1.58116 15.7669C1.6885 15.4717 1.97984 15.2917 2.28648 15.2917C2.37086 15.2917 2.46285 15.3062 2.5395 15.3349L4.61722 16.0261C9.04092 17.5091 13.963 17.5091 18.3867 16.0261L20.4568 15.3349C20.8554 15.2054 21.2848 15.3925 21.4228 15.7669C21.4918 15.9397 21.4841 16.134 21.3921 16.3068Z" fill="#F9F8FC"/>
</svg>
