<svg width="21" height="21" viewBox="0 0 21 21" fill="none" xmlns="http://www.w3.org/2000/svg">
<path d="M6.91972 11.9171C6.91972 12.1766 6.71304 12.3776 6.46959 12.3776C6.22625 12.3776 6.01962 12.1767 6.01962 11.9171C6.01962 11.6573 6.2263 11.4564 6.46959 11.4564C6.71299 11.4564 6.91972 11.6575 6.91972 11.9171Z" stroke="#4A3A5E"/>
<path d="M15.122 11.9171C15.122 12.1766 14.9154 12.3776 14.6719 12.3776C14.4286 12.3776 14.222 12.1767 14.222 11.9171C14.222 11.6573 14.4286 11.4564 14.6719 11.4564C14.9153 11.4564 15.122 11.6575 15.122 11.9171Z" stroke="#4A3A5E"/>
<path d="M4.71656 4.26967L4.71712 4.26907C5.45018 3.48889 6.4528 3.03229 7.43814 2.77285C8.42029 2.51424 9.34632 2.46187 9.88018 2.46187H10.3983H10.4846C10.4894 2.46187 10.5019 2.46127 10.5218 2.46033C10.7242 2.45073 11.6861 2.4051 12.8702 2.58708C14.1835 2.78891 15.6545 3.25671 16.5967 4.26761L16.5967 4.26761L16.5986 4.26966C17.8358 5.58217 18.65 7.47984 19.1538 9.23349C19.6551 10.9779 19.8293 12.5076 19.8308 13.0454C19.7681 15.1836 18.9601 16.8491 17.5447 17.99C16.1159 19.1416 14.0154 19.8005 11.3052 19.8005H10.0097C7.29932 19.8005 5.18774 19.1415 3.75353 17.9895C2.33286 16.8483 1.52613 15.1837 1.48441 13.0477C1.48537 12.49 1.65941 10.9583 2.16116 9.21742C2.66477 7.47002 3.47881 5.58268 4.71656 4.26967Z" stroke="#4A3A5E"/>
<path d="M17.2784 3.95736L17.2778 3.95678C16.3522 3.09569 16.2783 1.83453 16.9204 1.12029L16.9291 1.11064L16.9372 1.10056C17.2027 0.772489 17.7281 0.541658 18.3778 0.5H18.492C19.0535 0.5 19.5853 0.712251 19.9759 1.03108C20.3519 1.3861 20.5245 1.92137 20.4973 2.50938C20.4696 3.10548 20.2373 3.69044 19.8908 4.07585L19.8908 4.07585L19.8892 4.07767C19.592 4.41151 19.2405 4.57549 18.8012 4.61018C18.3305 4.64095 17.7701 4.41626 17.2784 3.95736Z" stroke="#4A3A5E"/>
<path d="M4.12546 1.43759L4.12532 1.4377L4.13397 1.44783C4.74651 2.16503 4.66687 3.43612 3.7809 4.29763C3.29731 4.74752 2.73623 4.98057 2.16875 4.94686L2.15401 4.94598L2.13924 4.94598C1.75126 4.94587 1.39974 4.77003 1.07803 4.44786C0.739229 4.06598 0.519506 3.48915 0.501228 2.89784C0.482911 2.30526 0.666994 1.76151 1.05315 1.40309C1.43295 1.05433 1.95855 0.837097 2.57092 0.837097H2.685C3.33447 0.878589 3.85996 1.10942 4.12546 1.43759Z" stroke="#4A3A5E"/>
<path d="M10.8331 14.6611C12.2998 14.6611 12.6664 13.7624 12.6664 13.313H8.66648C8.66648 13.9871 8.99981 14.6611 10.8331 14.6611ZM10.8331 14.6611V15.5037M10.8331 15.5037C11.1109 16.1216 11.9998 17.1889 13.3331 16.5148M10.8331 15.5037C10.5554 16.1216 9.69981 17.1889 8.49982 16.5148" stroke="#4A3A5E"/>
</svg>
