<svg width="20" height="21" viewBox="0 0 20 21" fill="none" xmlns="http://www.w3.org/2000/svg">
<path d="M3.37736 15.8136H16.7925M3.37736 15.8136C3.37736 16.0589 3.37736 16.7976 3.37736 17.9068M3.37736 15.8136V13.5593M16.7925 15.8136C16.7925 15.2463 16.7925 14.4113 16.7925 13.5593M16.7925 15.8136V17.9068M16.7925 13.5593C16.7925 12.3153 16.7925 11.0352 16.7925 10.5C16.7925 9.59831 16.4528 8.9435 16.283 8.72881C15.7815 8.21665 14.8907 7.29556 14.2453 6.59777M16.7925 13.5593H17.9811C18.3208 13.5593 19 13.8169 19 14.8475C19 15.878 19 16.887 19 17.2627C19 17.4774 18.7962 17.9068 17.9811 17.9068C17.166 17.9068 16.8491 17.9068 16.7925 17.9068M16.7925 17.9068V18.0678C16.7925 18.7119 16.3509 20 14.5849 20C12.8189 20 7.39623 20 4.90566 20C4.39623 19.9463 3.37736 19.5169 3.37736 18.2288C3.37736 18.1183 3.37736 18.0109 3.37736 17.9068M3.37736 17.9068H2.18868C1.79245 17.9068 1 17.7136 1 16.9407C1 16.1678 1 15.0085 1 14.5254C1 14.2034 1.23774 13.5593 2.18868 13.5593C2.73208 13.5593 3.20755 13.5593 3.37736 13.5593M3.37736 13.5593V10.5C3.37736 10.1243 3.47925 9.24407 3.88679 8.72881C4.18362 8.35354 5.03895 7.38605 5.7442 6.59777M8.98113 5.18644C8.80275 5.18644 8.63136 5.18644 8.4717 5.18644C8.22629 5.18644 7.99935 5.20833 7.79245 5.24471M8.98113 5.18644V3.89831C8.98113 3.62994 9.18491 3.09322 10 3.09322C10.8151 3.09322 11.0189 3.62994 11.0189 3.89831V5.18644M8.98113 5.18644C9.64498 5.18644 10.4056 5.18644 11.0189 5.18644M11.0189 5.18644C11.3625 5.18644 11.6598 5.18644 11.8679 5.18644C11.9589 5.18644 12.076 5.19323 12.2075 5.20991M12.2075 5.20991C12.649 5.26592 13.252 5.43351 13.566 5.83051C13.6958 5.99457 13.9438 6.2718 14.2453 6.59777M12.2075 5.20991L14.2453 1.64407C14.4151 1.42938 14.9245 1 15.6038 1C16.4528 1 17.4717 1.32203 16.9623 2.28814C16.5547 3.06102 14.9811 5.48326 14.2453 6.59777M7.79245 5.24471C7.08309 5.36941 6.60925 5.6643 6.43396 5.83051C6.24943 6.03464 6.00726 6.30374 5.7442 6.59777M7.79245 5.24471L5.92453 1.64407C5.81132 1.42938 5.44906 1 4.90566 1C4.36226 1 4 1 3.88679 1C3.37736 1.05367 2.49434 1.38644 3.03774 2.28814C3.58113 3.18983 5.06846 5.53693 5.7442 6.59777M5.58491 10.178V12.9153C5.58491 13.1299 5.78868 13.5593 6.60377 13.5593C7.41887 13.5593 11.6981 13.5593 13.7358 13.5593C14.0189 13.5593 14.5849 13.3983 14.5849 12.7542C14.5849 12.1102 14.5849 10.7684 14.5849 10.178C14.5849 9.9096 14.4151 9.37288 13.7358 9.37288C13.0566 9.37288 8.69811 9.37288 6.60377 9.37288C6.26415 9.37288 5.58491 9.5339 5.58491 10.178Z" stroke="#4A3A5E"/>
</svg>
