<svg width="32" height="19" viewBox="0 0 32 19" fill="none" xmlns="http://www.w3.org/2000/svg">
<rect x="12.2393" y="7.03833" width="7.5217" height="4.92308" stroke="#4A3A5E"/>
<rect x="3.10852" y="1.80786" width="3.60868" height="15.3846" rx="1" stroke="#4A3A5E"/>
<rect x="25.284" y="1.80786" width="3.60868" height="15.3846" rx="1" stroke="#4A3A5E"/>
<rect x="20.0649" y="0.5" width="4.91302" height="18" rx="1" stroke="#4A3A5E"/>
<rect x="7.02036" y="0.5" width="4.91302" height="18" rx="1" stroke="#4A3A5E"/>
<path d="M2.80434 7.53833V7.03833H2.30434H1.5C0.947715 7.03833 0.5 7.48605 0.5 8.03833V10.9614C0.5 11.5137 0.947716 11.9614 1.5 11.9614H2.30434H2.80434V11.4614V7.53833Z" stroke="#4A3A5E"/>
<path d="M29.6958 7.03833H29.1958V7.53833V11.4614V11.9614H29.6958H30.5001C31.0524 11.9614 31.5001 11.5137 31.5001 10.9614V8.03833C31.5001 7.48605 31.0524 7.03833 30.5001 7.03833H29.6958Z" stroke="#4A3A5E"/>
</svg>
