<svg width="15" height="24" viewBox="0 0 15 24" fill="none" xmlns="http://www.w3.org/2000/svg">
<path d="M12.825 15.025V15.025C13.5844 15.025 14.2 14.41 14.2 13.6506C14.2 11.7074 14.2 8.68484 14.2 5.95C14.2 3.79716 13.1028 2.49468 11.9149 1.76573C10.8896 1.13653 9.8 2.06257 9.8 3.26556V15.025M12.825 15.025V21.4875C12.825 22.3228 12.1478 23 11.3125 23V23C10.4772 23 9.8 22.3228 9.8 21.4875V15.025M12.825 15.025H9.8M1 1V5.4M1 5.4V8.25847C1 8.87792 1.30959 9.45639 1.825 9.8V9.8C2.34041 10.1436 2.65 10.7221 2.65 11.3415V21.625C2.65 22.3844 3.26561 23 4.025 23V23C4.78439 23 5.4 22.3844 5.4 21.625V11.3415C5.4 10.7221 5.70959 10.1436 6.225 9.8V9.8C6.74041 9.45639 7.05 8.87792 7.05 8.25847V5.4M1 5.4H4.025M4.025 5.4V1M4.025 5.4H7.05M7.05 5.4V1.55V1" stroke="#4A3A5E" stroke-linecap="round"/>
</svg>
