<svg width="22" height="34" viewBox="0 0 22 34" fill="none" xmlns="http://www.w3.org/2000/svg">
<path d="M21.2413 28.2045H11.3613V27.3158H20.4433V21.9067H21.2413V28.2045Z" fill="#4A3A5E"/>
<path d="M5.928 28.2045H0V6.76136L10.336 0L18.734 4.71364L18.354 5.44773L10.374 0.965909L0.798 7.18636V27.3159H5.928V28.2045Z" fill="#4A3A5E"/>
<path d="M7.94198 34H7.33398C7.33398 26.5045 10.526 18.4681 16.074 11.8613L16.53 12.2477C11.058 18.7772 7.94198 26.6977 7.94198 34Z" fill="#4A3A5E"/>
<path d="M18.9621 11.0114C18.1261 12.2091 16.1881 12.2091 16.1881 12.2091C16.1881 12.2091 15.5801 10.3546 16.4161 9.15684C17.2521 7.95911 18.4681 7.45684 19.1901 7.95911C19.8741 8.50002 19.7981 9.81365 18.9621 11.0114Z" fill="#4A3A5E"/>
<path d="M16.0368 12.4023L15.9988 12.2478C15.9608 12.1705 15.3908 10.2387 16.2648 9.0023C17.1388 7.7273 18.5068 7.18639 19.3048 7.76593C19.6848 8.03639 19.9128 8.5773 19.8368 9.23412C19.7988 9.8523 19.4948 10.5091 19.0768 11.0887C18.2028 12.325 16.2268 12.3637 16.1508 12.3637H16.0368V12.4023ZM18.5828 7.95912C17.9748 7.95912 17.1768 8.42275 16.6068 9.23412C15.9988 10.1228 16.2268 11.475 16.3788 11.9387C16.8348 11.9 18.2028 11.7455 18.8108 10.8568C19.1908 10.3159 19.4188 9.69775 19.4568 9.19548C19.4948 8.73184 19.3808 8.30684 19.0768 8.11366C18.9628 7.99775 18.7728 7.95912 18.5828 7.95912Z" fill="#4A3A5E"/>
<path d="M13.8328 22.5249C12.3508 23.2976 10.2988 22.1772 10.2988 22.1772C10.2988 22.1772 10.7168 19.8976 12.2368 19.1249C13.7568 18.3522 15.3148 18.5454 15.7708 19.4726C16.2268 20.3999 15.3528 21.7522 13.8328 22.5249Z" fill="#4A3A5E"/>
<path d="M12.6153 23.0658C11.3993 23.0658 10.2592 22.4476 10.1832 22.4476L10.0312 22.409L10.0693 22.2544C10.0693 22.1771 10.5253 19.859 12.1213 19.0476C13.7553 18.2362 15.4653 18.4294 15.9213 19.4726C16.4533 20.5158 15.5413 21.984 13.9073 22.7567C13.5273 22.9885 13.0333 23.0658 12.6153 23.0658ZM10.5253 22.1385C10.9813 22.3703 12.5393 22.9885 13.7553 22.409C15.1613 21.7521 15.9973 20.4385 15.5793 19.6271C15.1993 18.8158 13.7173 18.7385 12.3113 19.3953C11.1333 19.9749 10.6393 21.5976 10.5253 22.1385Z" fill="#4A3A5E"/>
<path d="M10.8676 18.5842C11.3236 20.2069 9.91756 22.0614 9.91756 22.0614C9.91756 22.0614 7.75156 21.2501 7.29556 19.6273C6.83956 18.0046 7.25756 16.4205 8.24556 16.1501C9.19556 15.8796 10.4116 16.9614 10.8676 18.5842Z" fill="#4A3A5E"/>
<path d="M10.0709 22.3704L9.91892 22.3317C9.84292 22.2931 7.67692 21.4817 7.14492 19.7431C6.91692 18.9317 6.87892 18.0817 7.06892 17.3476C7.25892 16.6136 7.67692 16.1113 8.20892 15.9567C8.77892 15.8022 9.34892 15.9954 9.88092 16.4976C10.4129 16.9613 10.8309 17.6954 11.0589 18.5454C11.5909 20.2454 10.1849 22.1386 10.1089 22.2158L10.0709 22.3704ZM8.62692 16.3431C8.55092 16.3431 8.43692 16.3431 8.36092 16.3817C7.94292 16.5363 7.63892 16.9226 7.52492 17.4636C7.37292 18.0817 7.37292 18.8545 7.60092 19.6272C7.98092 20.9022 9.46292 21.6749 9.95692 21.8681C10.2229 21.4431 11.1349 19.9749 10.7549 18.6613C10.5269 17.8886 10.1469 17.2317 9.69092 16.8067C9.27292 16.4976 8.96892 16.3431 8.62692 16.3431Z" fill="#4A3A5E"/>
<path d="M16.569 17.2318C15.049 17.6568 13.377 16.3431 13.377 16.3431C13.377 16.3431 14.137 14.2954 15.619 13.8704C17.101 13.4454 18.545 13.8318 18.8109 14.759C19.0769 15.6863 18.0129 16.8068 16.569 17.2318Z" fill="#4A3A5E"/>
<path d="M15.8452 17.5795C14.4772 17.5795 13.2612 16.6136 13.1852 16.5749L13.0332 16.4976L13.0712 16.3431C13.1092 16.2658 13.8692 14.1795 15.4652 13.7545C16.2252 13.5226 17.0232 13.5226 17.6312 13.7158C18.2772 13.909 18.7712 14.2954 18.8852 14.7976C19.1512 15.8408 18.1252 17.0386 16.4912 17.5022C16.3392 17.5408 16.0732 17.5795 15.8452 17.5795ZM13.5652 16.3431C13.9832 16.6136 15.3132 17.4249 16.4152 17.1158C17.7832 16.7295 18.7712 15.6863 18.5432 14.9136C18.4672 14.5272 18.0872 14.2567 17.5552 14.1022C16.9852 13.9476 16.3012 13.9476 15.5792 14.1408C14.4392 14.4886 13.7932 15.8795 13.5652 16.3431Z" fill="#4A3A5E"/>
<path d="M14.4011 13.2137C14.5911 14.7978 13.0331 16.266 13.0331 16.266C13.0331 16.266 11.2091 15.1842 11.0191 13.6001C10.8291 12.016 11.4371 10.6251 12.3871 10.5478C13.3371 10.4319 14.2491 11.6296 14.4011 13.2137Z" fill="#4A3A5E"/>
<path d="M13.0727 16.4976L12.9207 16.4203C12.8447 16.3817 10.9827 15.2612 10.7927 13.5999C10.6027 11.8999 11.2487 10.4703 12.3507 10.3158C13.4147 10.1612 14.4027 11.3976 14.5927 13.1362C14.7827 14.7976 13.2247 16.2658 13.1487 16.3817L13.0727 16.4976ZM12.5407 10.7408H12.4647C11.6667 10.818 11.0967 12.1317 11.2487 13.5612C11.4007 14.759 12.6167 15.7249 13.0347 15.9953C13.3767 15.609 14.4027 14.4885 14.2507 13.2135C14.0607 11.8226 13.3387 10.7408 12.5407 10.7408Z" fill="#4A3A5E"/>
</svg>
