<svg width="19" height="21" viewBox="0 0 19 21" fill="none" xmlns="http://www.w3.org/2000/svg">
<path d="M3.81481 1L1 4.8V18.1C1 18.6039 1.19771 19.0872 1.54963 19.4435C1.90155 19.7998 2.37885 20 2.87654 20H16.0123C16.51 20 16.9873 19.7998 17.3393 19.4435C17.6912 19.0872 17.8889 18.6039 17.8889 18.1V4.8L15.0741 1H3.81481Z" stroke="#4A3A5E" stroke-linecap="round" stroke-linejoin="round"/>
<path d="M1 4.79993H17.8889" stroke="#4A3A5E" stroke-linecap="round" stroke-linejoin="round"/>
<path d="M13.1971 8.6001C13.1971 9.60792 12.8016 10.5745 12.0978 11.2871C11.394 11.9997 10.4394 12.4001 9.44397 12.4001C8.44859 12.4001 7.49398 11.9997 6.79014 11.2871C6.0863 10.5745 5.69089 9.60792 5.69089 8.6001" stroke="#4A3A5E" stroke-linecap="round" stroke-linejoin="round"/>
</svg>
