<svg width="70" height="95" viewBox="0 0 70 95" fill="none" xmlns="http://www.w3.org/2000/svg">
<path d="M35.1202 94.1742L34.8357 94.5C34.3576 93.9372 33.8612 93.3544 33.3489 92.7529L33.3364 92.7382C21.1685 78.4509 0 53.5955 0 35.1474C0 15.9158 15.7747 0 34.8357 0C54.2254 0 70 15.9158 70 35.1474C70 54.23 47.3503 80.1683 35.1202 94.1742Z" fill="#4A3A5E"/>
<ellipse cx="34.9987" cy="34.8158" rx="25" ry="24.8684" fill="white"/>
<path d="M28.3774 39.8136H41.7925M28.3774 39.8136C28.3774 40.0589 28.3774 40.7976 28.3774 41.9068M28.3774 39.8136V37.5593M41.7925 39.8136C41.7925 39.2463 41.7925 38.4113 41.7925 37.5593M41.7925 39.8136V41.9068M41.7925 37.5593C41.7925 36.3153 41.7925 35.0352 41.7925 34.5C41.7925 33.5983 41.4528 32.9435 41.283 32.7288C40.7815 32.2167 39.8907 31.2956 39.2453 30.5978M41.7925 37.5593H42.9811C43.3208 37.5593 44 37.8169 44 38.8475C44 39.878 44 40.887 44 41.2627C44 41.4774 43.7962 41.9068 42.9811 41.9068C42.166 41.9068 41.8491 41.9068 41.7925 41.9068M41.7925 41.9068V42.0678C41.7925 42.7119 41.3509 44 39.5849 44C37.8189 44 32.3962 44 29.9057 44C29.3962 43.9463 28.3774 43.5169 28.3774 42.2288C28.3774 42.1183 28.3774 42.0109 28.3774 41.9068M28.3774 41.9068H27.1887C26.7925 41.9068 26 41.7136 26 40.9407C26 40.1678 26 39.0085 26 38.5254C26 38.2034 26.2377 37.5593 27.1887 37.5593C27.7321 37.5593 28.2075 37.5593 28.3774 37.5593M28.3774 37.5593V34.5C28.3774 34.1243 28.4792 33.2441 28.8868 32.7288C29.1836 32.3535 30.0389 31.3861 30.7442 30.5978M33.9811 29.1864C33.8028 29.1864 33.6314 29.1864 33.4717 29.1864C33.2263 29.1864 32.9994 29.2083 32.7925 29.2447M33.9811 29.1864V27.8983C33.9811 27.6299 34.1849 27.0932 35 27.0932C35.8151 27.0932 36.0189 27.6299 36.0189 27.8983V29.1864M33.9811 29.1864C34.645 29.1864 35.4056 29.1864 36.0189 29.1864M36.0189 29.1864C36.3625 29.1864 36.6598 29.1864 36.8679 29.1864C36.9589 29.1864 37.076 29.1932 37.2075 29.2099M37.2075 29.2099C37.649 29.2659 38.252 29.4335 38.566 29.8305C38.6958 29.9946 38.9438 30.2718 39.2453 30.5978M37.2075 29.2099L39.2453 25.6441C39.4151 25.4294 39.9245 25 40.6038 25C41.4528 25 42.4717 25.322 41.9623 26.2881C41.5547 27.061 39.9811 29.4833 39.2453 30.5978M32.7925 29.2447C32.0831 29.3694 31.6093 29.6643 31.434 29.8305C31.2494 30.0346 31.0073 30.3037 30.7442 30.5978M32.7925 29.2447L30.9245 25.6441C30.8113 25.4294 30.4491 25 29.9057 25C29.3623 25 29 25 28.8868 25C28.3774 25.0537 27.4943 25.3864 28.0377 26.2881C28.5811 27.1898 30.0685 29.5369 30.7442 30.5978M30.5849 34.178V36.9153C30.5849 37.1299 30.7887 37.5593 31.6038 37.5593C32.4189 37.5593 36.6981 37.5593 38.7358 37.5593C39.0189 37.5593 39.5849 37.3983 39.5849 36.7542C39.5849 36.1102 39.5849 34.7684 39.5849 34.178C39.5849 33.9096 39.4151 33.3729 38.7358 33.3729C38.0566 33.3729 33.6981 33.3729 31.6038 33.3729C31.2642 33.3729 30.5849 33.5339 30.5849 34.178Z" stroke="#4A3A5E"/>
</svg>
