<svg width="70" height="95" viewBox="0 0 70 95" fill="none" xmlns="http://www.w3.org/2000/svg">
<path d="M35.1202 94.1742L34.8357 94.5C34.3576 93.9372 33.8612 93.3544 33.3489 92.7529L33.3364 92.7382C21.1685 78.4509 0 53.5955 0 35.1474C0 15.9158 15.7747 0 34.8357 0C54.2254 0 70 15.9158 70 35.1474C70 54.23 47.3503 80.1683 35.1202 94.1742Z" fill="#4A3A5E"/>
<ellipse cx="34.9987" cy="34.8159" rx="25" ry="24.8684" fill="white"/>
<rect x="31.2393" y="32.0383" width="7.5217" height="4.92308" stroke="#4A3A5E"/>
<rect x="22.1085" y="26.8079" width="3.60868" height="15.3846" rx="1" stroke="#4A3A5E"/>
<rect x="44.284" y="26.8079" width="3.60868" height="15.3846" rx="1" stroke="#4A3A5E"/>
<rect x="39.0649" y="25.5" width="4.91302" height="18" rx="1" stroke="#4A3A5E"/>
<rect x="26.0204" y="25.5" width="4.91302" height="18" rx="1" stroke="#4A3A5E"/>
<path d="M21.8043 32.5383V32.0383H21.3043H20.5C19.9477 32.0383 19.5 32.486 19.5 33.0383V35.9614C19.5 36.5137 19.9477 36.9614 20.5 36.9614H21.3043H21.8043V36.4614V32.5383Z" stroke="#4A3A5E"/>
<path d="M48.6958 32.0383H48.1958V32.5383V36.4614V36.9614H48.6958H49.5001C50.0524 36.9614 50.5001 36.5137 50.5001 35.9614V33.0383C50.5001 32.486 50.0524 32.0383 49.5001 32.0383H48.6958Z" stroke="#4A3A5E"/>
</svg>
