<svg width="70" height="95" viewBox="0 0 70 95" fill="none" xmlns="http://www.w3.org/2000/svg">
<path d="M35.1202 94.1742L34.8357 94.5C34.3576 93.9372 33.8612 93.3544 33.3489 92.7529L33.3364 92.7382C21.1685 78.4509 0 53.5955 0 35.1474C0 15.9158 15.7747 0 34.8357 0C54.2254 0 70 15.9158 70 35.1474C70 54.23 47.3503 80.1683 35.1202 94.1742Z" fill="#4A3A5E"/>
<ellipse cx="34.9987" cy="34.8159" rx="25" ry="24.8684" fill="white"/>
<path d="M41.0141 37.5532L40.4541 34.751C40.1927 33.4075 38.9447 32.43 37.4887 32.43H35.59C35.6487 30.9462 34.982 28.6704 32.0539 27.8733C31.8886 27.8282 31.718 27.8583 31.5846 27.9535C31.4513 28.0488 31.3713 28.1941 31.3713 28.3545V29.327L28.5392 30.6604C27.9952 30.9161 27.6432 31.4525 27.6432 32.024C27.6432 32.6205 27.9952 33.1468 28.5606 33.4075L29.8566 33.989L29.2166 37.6183L29.1312 37.5882C28.3046 37.3075 27.3925 37.7136 27.0939 38.4906C26.8005 39.2676 27.2325 40.1248 28.0592 40.4005L29.4992 40.8867C31.2646 41.4782 33.1153 41.779 35.0033 41.779C36.886 41.779 38.7367 41.4782 40.5021 40.8867L41.9474 40.4005C42.3474 40.2702 42.6674 39.9944 42.8488 39.6335C43.0301 39.2726 43.0514 38.8665 42.9074 38.4906C42.6301 37.7587 41.7981 37.3627 41.0141 37.5532ZM32.9233 38.4404C33.1846 37.5582 34.038 36.9416 35.0087 36.9416C35.4407 36.9416 35.8567 37.0619 36.214 37.2875C36.5713 37.5181 36.8487 37.8389 37.0087 38.2149L37.1794 38.6159C35.7553 38.8365 34.2993 38.8365 32.87 38.6209L32.9233 38.4404ZM41.8834 39.2074C41.8247 39.3227 41.7181 39.4129 41.5901 39.4581L40.1447 39.9443C36.8434 41.0522 33.1579 41.0522 29.8619 39.9443L28.4166 39.4581C28.1446 39.3678 28.0059 39.0871 28.1019 38.8315C28.1766 38.6259 28.3792 38.5006 28.5926 38.5006C28.6512 38.5006 28.7152 38.5106 28.7686 38.5307L30.2139 39.0119C33.2913 40.0446 36.7154 40.0446 39.7927 39.0119L41.2327 38.5307C41.5101 38.4405 41.8088 38.5708 41.9048 38.8315C41.9528 38.9518 41.9474 39.0871 41.8834 39.2074Z" fill="#4A3A5E"/>
</svg>
