<svg width="70" height="95" viewBox="0 0 70 95" fill="none" xmlns="http://www.w3.org/2000/svg">
<path d="M35.1202 94.1742L34.8357 94.5C34.3576 93.9372 33.8612 93.3544 33.3489 92.7529L33.3364 92.7382C21.1685 78.4509 0 53.5955 0 35.1474C0 15.9158 15.7747 0 34.8357 0C54.2254 0 70 15.9158 70 35.1474C70 54.23 47.3503 80.1683 35.1202 94.1742Z" fill="#4A3A5E"/>
<ellipse cx="34.9987" cy="34.8159" rx="25" ry="24.8684" fill="white"/>
<rect x="26.6262" y="27" width="16.25" height="5.091" rx="2" stroke="#4A3A5E"/>
<rect x="26" y="34.0001" width="17.5" height="3.18187" rx="1.59094" stroke="#4A3A5E"/>
<path d="M27.2498 37.1818H29.7498V39.75C29.7498 40.4404 29.1902 41 28.4998 41V41C27.8095 41 27.2498 40.4404 27.2498 39.75V37.1818Z" stroke="#4A3A5E"/>
<path d="M39.7494 37.1818H42.2494V39.75C42.2494 40.4404 41.6897 41 40.9994 41V41C40.309 41 39.7494 40.4404 39.7494 39.75V37.1818Z" stroke="#4A3A5E"/>
<path d="M29.7484 32.0911V34.0002M39.7484 32.0911V34.0002" stroke="#4A3A5E"/>
</svg>
