<svg width="70" height="95" viewBox="0 0 70 95" fill="none" xmlns="http://www.w3.org/2000/svg">
<path d="M35.1202 94.1742L34.8357 94.5C34.3576 93.9372 33.8612 93.3544 33.3489 92.7529L33.3364 92.7382C21.1685 78.4509 0 53.5955 0 35.1474C0 15.9158 15.7747 0 34.8357 0C54.2254 0 70 15.9158 70 35.1474C70 54.23 47.3503 80.1683 35.1202 94.1742Z" fill="#4A3A5E"/>
<ellipse cx="34.9987" cy="34.8158" rx="25" ry="24.8684" fill="white"/>
<path d="M29.8148 25L27 28.8V42.1C27 42.6039 27.1977 43.0872 27.5496 43.4435C27.9015 43.7998 28.3789 44 28.8765 44H42.0123C42.51 44 42.9873 43.7998 43.3393 43.4435C43.6912 43.0872 43.8889 42.6039 43.8889 42.1V28.8L41.0741 25H29.8148Z" stroke="#4A3A5E" stroke-linecap="round" stroke-linejoin="round"/>
<path d="M27 28.7999H43.8889" stroke="#4A3A5E" stroke-linecap="round" stroke-linejoin="round"/>
<path d="M39.1971 32.6001C39.1971 33.6079 38.8016 34.5745 38.0978 35.2871C37.394 35.9997 36.4394 36.4001 35.444 36.4001C34.4486 36.4001 33.494 35.9997 32.7901 35.2871C32.0863 34.5745 31.6909 33.6079 31.6909 32.6001" stroke="#4A3A5E" stroke-linecap="round" stroke-linejoin="round"/>
</svg>
