<svg width="245" height="70" viewBox="0 0 245 70" fill="none" xmlns="http://www.w3.org/2000/svg">
<path d="M245 31.5455C245 14.1234 230.877 0 213.455 0H31.5455C14.1234 0 0 14.1234 0 31.5455V31.5455C0 48.9675 14.1234 63.0909 31.5455 63.0909H115.606L122 70L128.394 63.0909H213.455C230.877 63.0909 245 48.9675 245 31.5455V31.5455Z" fill="#4A3A5E"/>
<path d="M102.478 33.9987C101.507 34.96 100.28 35.4407 98.796 35.4407C97.3213 35.4407 96.0987 34.96 95.128 33.9987C94.1573 33.0374 93.672 31.8334 93.672 30.3867C93.672 28.9307 94.1573 27.722 95.128 26.7607C96.0987 25.79 97.3213 25.3047 98.796 25.3047C100.28 25.3047 101.507 25.7854 102.478 26.7467C103.449 27.708 103.934 28.9167 103.934 30.3727C103.934 31.8287 103.449 33.0374 102.478 33.9987ZM96.024 33.1307C96.7613 33.868 97.6853 34.2367 98.796 34.2367C99.916 34.2367 100.84 33.8727 101.568 33.1447C102.305 32.4074 102.674 31.4834 102.674 30.3727C102.674 29.262 102.305 28.3427 101.568 27.6147C100.84 26.8774 99.916 26.5087 98.796 26.5087C97.6853 26.5087 96.7613 26.8774 96.024 27.6147C95.296 28.352 94.932 29.2714 94.932 30.3727C94.932 31.474 95.296 32.3934 96.024 33.1307ZM116.255 30.3587C116.255 31.2454 116.064 32.062 115.681 32.8087C115.308 33.5554 114.748 34.1667 114.001 34.6427C113.264 35.1187 112.41 35.3754 111.439 35.4127V36.9247H110.235V35.4127C109.274 35.3754 108.42 35.1187 107.673 34.6427C106.936 34.1667 106.376 33.56 105.993 32.8227C105.611 32.076 105.419 31.264 105.419 30.3867C105.419 29.5094 105.611 28.6974 105.993 27.9507C106.376 27.204 106.936 26.5927 107.673 26.1167C108.42 25.6314 109.274 25.37 110.235 25.3327V23.9887H111.439V25.3327C112.177 25.3607 112.849 25.5147 113.455 25.7947C114.071 26.0747 114.58 26.4434 114.981 26.9007C115.383 27.358 115.695 27.8854 115.919 28.4827C116.143 29.08 116.255 29.7054 116.255 30.3587ZM111.439 34.2367C111.971 34.2087 112.461 34.0874 112.909 33.8727C113.357 33.6487 113.731 33.364 114.029 33.0187C114.337 32.664 114.575 32.2627 114.743 31.8147C114.921 31.3574 115.009 30.8767 115.009 30.3727C115.009 29.346 114.678 28.464 114.015 27.7267C113.362 26.9894 112.503 26.588 111.439 26.5227V34.2367ZM106.679 30.3727C106.679 31.3994 107.006 32.286 107.659 33.0327C108.322 33.77 109.181 34.1714 110.235 34.2367V26.5227C109.181 26.588 108.322 26.994 107.659 27.7407C107.006 28.478 106.679 29.3554 106.679 30.3727ZM118.427 35.2727V25.4727H119.645V35.2727H118.427ZM126.831 35.4267C125.375 35.4267 124.171 34.9507 123.219 33.9987C122.276 33.0467 121.805 31.838 121.805 30.3727C121.805 28.9074 122.276 27.6987 123.219 26.7467C124.171 25.7947 125.375 25.3187 126.831 25.3187C127.578 25.3187 128.268 25.4634 128.903 25.7527C129.547 26.0327 130.088 26.434 130.527 26.9567C130.975 27.4794 131.288 28.0907 131.465 28.7907H130.219C129.958 28.0814 129.528 27.526 128.931 27.1247C128.334 26.7234 127.634 26.5227 126.831 26.5227C125.73 26.5227 124.824 26.8867 124.115 27.6147C123.415 28.3334 123.065 29.2574 123.065 30.3867C123.065 31.5067 123.415 32.426 124.115 33.1447C124.824 33.8634 125.73 34.2227 126.831 34.2227C127.652 34.2227 128.366 34.0127 128.973 33.5927C129.58 33.1634 130.009 32.5707 130.261 31.8147H131.521C131.241 32.9254 130.676 33.8074 129.827 34.4607C128.987 35.1047 127.988 35.4267 126.831 35.4267ZM137.29 25.4727H144.43V35.2727H143.184V26.6207H138.508V35.2727H137.29V25.4727ZM150.761 25.4727C151.685 25.4727 152.455 25.7714 153.071 26.3687C153.696 26.966 154.009 27.7127 154.009 28.6087C154.009 29.5047 153.696 30.2514 153.071 30.8487C152.455 31.446 151.685 31.7447 150.761 31.7447H148.465V35.2727H147.247V25.4727H150.761ZM150.691 30.5547C151.288 30.5547 151.778 30.3727 152.161 30.0087C152.553 29.6354 152.749 29.1687 152.749 28.6087C152.749 28.0487 152.553 27.5867 152.161 27.2227C151.778 26.8494 151.288 26.6627 150.691 26.6627H148.465V30.5547H150.691ZM164.065 33.9987C163.095 34.96 161.867 35.4407 160.383 35.4407C158.909 35.4407 157.686 34.96 156.715 33.9987C155.745 33.0374 155.259 31.8334 155.259 30.3867C155.259 28.9307 155.745 27.722 156.715 26.7607C157.686 25.79 158.909 25.3047 160.383 25.3047C161.867 25.3047 163.095 25.7854 164.065 26.7467C165.036 27.708 165.521 28.9167 165.521 30.3727C165.521 31.8287 165.036 33.0374 164.065 33.9987ZM157.611 33.1307C158.349 33.868 159.273 34.2367 160.383 34.2367C161.503 34.2367 162.427 33.8727 163.155 33.1447C163.893 32.4074 164.261 31.4834 164.261 30.3727C164.261 29.262 163.893 28.3427 163.155 27.6147C162.427 26.8774 161.503 26.5087 160.383 26.5087C159.273 26.5087 158.349 26.8774 157.611 27.6147C156.883 28.352 156.519 29.2714 156.519 30.3727C156.519 31.474 156.883 32.3934 157.611 33.1307ZM174.925 34.1247H175.947V37.2747H174.813V35.2727H167.435V37.2747H166.301V34.1247H167.057C167.225 34.022 167.365 33.9007 167.477 33.7607C167.589 33.6207 167.697 33.406 167.799 33.1167C167.911 32.818 168 32.4914 168.065 32.1367C168.14 31.782 168.219 31.2687 168.303 30.5967C168.387 29.9154 168.467 29.1967 168.541 28.4407C168.616 27.6847 168.705 26.6954 168.807 25.4727H174.925V34.1247ZM169.941 26.6207C169.736 29.2434 169.535 31.0587 169.339 32.0667C169.143 33.0654 168.845 33.7514 168.443 34.1247H173.693V26.6207H169.941ZM184.891 35.2727L183.911 32.9207H179.207L178.241 35.2727H176.939L180.943 25.4727H182.091L186.221 35.2727H184.891ZM181.545 27.1667L179.669 31.8007H183.449L181.545 27.1667ZM198.447 35.2727L195.115 30.7787H193.925V35.2727H192.693V30.7787H191.503L188.171 35.2727H186.631L190.411 30.1627L186.995 25.4727H188.493L191.503 29.6307H192.693V25.4727H193.925V29.6307H195.115L198.125 25.4727H199.623L196.207 30.1627L200.001 35.2727H198.447Z" fill="white"/>
<path d="M79 40.7576L79 22.2121" stroke="#F0F0F0" stroke-opacity="0.5"/>
<path d="M65.2413 43.2045H55.3613V42.3158H64.4433V36.9067H65.2413V43.2045Z" fill="white"/>
<path d="M49.928 43.2045H44V21.7614L54.336 15L62.734 19.7136L62.354 20.4477L54.374 15.9659L44.798 22.1864V42.3159H49.928V43.2045Z" fill="white"/>
<path d="M51.942 49H51.334C51.334 41.5045 54.526 33.4681 60.074 26.8613L60.53 27.2477C55.058 33.7772 51.942 41.6977 51.942 49Z" fill="white"/>
<path d="M62.9621 26.0114C62.1261 27.2091 60.1881 27.2091 60.1881 27.2091C60.1881 27.2091 59.5801 25.3546 60.4161 24.1568C61.2521 22.9591 62.4681 22.4568 63.1901 22.9591C63.8741 23.5 63.7981 24.8137 62.9621 26.0114Z" fill="white"/>
<path d="M60.0368 27.4023L59.9988 27.2478C59.9608 27.1705 59.3908 25.2387 60.2648 24.0023C61.1388 22.7273 62.5068 22.1864 63.3048 22.7659C63.6848 23.0364 63.9128 23.5773 63.8368 24.2341C63.7988 24.8523 63.4948 25.5091 63.0768 26.0887C62.2028 27.325 60.2268 27.3637 60.1508 27.3637H60.0368V27.4023ZM62.5828 22.9591C61.9748 22.9591 61.1768 23.4228 60.6068 24.2341C59.9988 25.1228 60.2268 26.475 60.3788 26.9387C60.8348 26.9 62.2028 26.7455 62.8108 25.8568C63.1908 25.3159 63.4188 24.6978 63.4568 24.1955C63.4948 23.7318 63.3808 23.3068 63.0768 23.1137C62.9628 22.9978 62.7728 22.9591 62.5828 22.9591Z" fill="white"/>
<path d="M57.8328 37.5249C56.3508 38.2976 54.2988 37.1772 54.2988 37.1772C54.2988 37.1772 54.7168 34.8976 56.2368 34.1249C57.7568 33.3522 59.3148 33.5454 59.7708 34.4726C60.2268 35.3999 59.3528 36.7522 57.8328 37.5249Z" fill="white"/>
<path d="M56.6153 38.0658C55.3993 38.0658 54.2592 37.4476 54.1832 37.4476L54.0312 37.409L54.0693 37.2544C54.0693 37.1771 54.5253 34.859 56.1213 34.0476C57.7553 33.2362 59.4653 33.4294 59.9213 34.4726C60.4533 35.5158 59.5413 36.984 57.9073 37.7567C57.5273 37.9885 57.0333 38.0658 56.6153 38.0658ZM54.5253 37.1385C54.9813 37.3703 56.5393 37.9885 57.7553 37.409C59.1613 36.7521 59.9973 35.4385 59.5793 34.6271C59.1993 33.8158 57.7173 33.7385 56.3113 34.3953C55.1333 34.9749 54.6393 36.5976 54.5253 37.1385Z" fill="white"/>
<path d="M54.8676 33.5842C55.3236 35.2069 53.9176 37.0614 53.9176 37.0614C53.9176 37.0614 51.7516 36.2501 51.2956 34.6273C50.8396 33.0046 51.2576 31.4205 52.2456 31.1501C53.1956 30.8796 54.4116 31.9614 54.8676 33.5842Z" fill="white"/>
<path d="M54.0709 37.3704L53.9189 37.3317C53.8429 37.2931 51.6769 36.4817 51.1449 34.7431C50.9169 33.9317 50.8789 33.0817 51.0689 32.3476C51.2589 31.6136 51.6769 31.1113 52.2089 30.9567C52.7789 30.8022 53.3489 30.9954 53.8809 31.4976C54.4129 31.9613 54.8309 32.6954 55.0589 33.5454C55.5909 35.2454 54.1849 37.1386 54.1089 37.2158L54.0709 37.3704ZM52.6269 31.3431C52.5509 31.3431 52.4369 31.3431 52.3609 31.3817C51.9429 31.5363 51.6389 31.9226 51.5249 32.4636C51.3729 33.0817 51.3729 33.8545 51.6009 34.6272C51.9809 35.9022 53.4629 36.6749 53.9569 36.8681C54.2229 36.4431 55.1349 34.9749 54.7549 33.6613C54.5269 32.8886 54.1469 32.2317 53.6909 31.8067C53.2729 31.4976 52.9689 31.3431 52.6269 31.3431Z" fill="white"/>
<path d="M60.569 32.2318C59.049 32.6568 57.377 31.3431 57.377 31.3431C57.377 31.3431 58.137 29.2954 59.619 28.8704C61.101 28.4454 62.545 28.8318 62.8109 29.759C63.0769 30.6863 62.0129 31.8068 60.569 32.2318Z" fill="white"/>
<path d="M59.8452 32.5795C58.4772 32.5795 57.2612 31.6136 57.1852 31.5749L57.0332 31.4976L57.0712 31.3431C57.1092 31.2658 57.8692 29.1795 59.4652 28.7545C60.2252 28.5226 61.0232 28.5226 61.6312 28.7158C62.2772 28.909 62.7712 29.2954 62.8852 29.7976C63.1512 30.8408 62.1252 32.0386 60.4912 32.5022C60.3392 32.5408 60.0732 32.5795 59.8452 32.5795ZM57.5652 31.3431C57.9832 31.6136 59.3132 32.4249 60.4152 32.1158C61.7832 31.7295 62.7712 30.6863 62.5432 29.9136C62.4672 29.5272 62.0872 29.2567 61.5552 29.1022C60.9852 28.9476 60.3012 28.9476 59.5792 29.1408C58.4392 29.4886 57.7932 30.8795 57.5652 31.3431Z" fill="white"/>
<path d="M58.4011 28.2137C58.5911 29.7978 57.0331 31.266 57.0331 31.266C57.0331 31.266 55.2091 30.1842 55.0191 28.6001C54.8291 27.016 55.4371 25.6251 56.3871 25.5478C57.3371 25.4319 58.2491 26.6296 58.4011 28.2137Z" fill="white"/>
<path d="M57.0727 31.4976L56.9207 31.4203C56.8447 31.3817 54.9827 30.2612 54.7927 28.5999C54.6027 26.8999 55.2487 25.4703 56.3507 25.3158C57.4147 25.1612 58.4027 26.3976 58.5927 28.1362C58.7827 29.7976 57.2247 31.2658 57.1487 31.3817L57.0727 31.4976ZM56.5407 25.7408H56.4647C55.6667 25.818 55.0967 27.1317 55.2487 28.5612C55.4007 29.759 56.6167 30.7249 57.0347 30.9953C57.3767 30.609 58.4027 29.4885 58.2507 28.2135C58.0607 26.8226 57.3387 25.7408 56.5407 25.7408Z" fill="white"/>
</svg>
