<svg width="245" height="70" viewBox="0 0 245 70" fill="none" xmlns="http://www.w3.org/2000/svg">
<path d="M245 31.5455C245 14.1234 230.877 0 213.455 0H31.5455C14.1234 0 0 14.1234 0 31.5455V31.5455C0 48.9675 14.1234 63.0909 31.5455 63.0909H115.606L122 70L128.394 63.0909H213.455C230.877 63.0909 245 48.9675 245 31.5455V31.5455Z" fill="#4A3A5E"/>
<path d="M79 40.7576L79 22.2121" stroke="#F0F0F0" stroke-opacity="0.5"/>
<path d="M65.2413 43.2045H55.3613V42.3158H64.4433V36.9067H65.2413V43.2045Z" fill="white"/>
<path d="M49.928 43.2045H44V21.7614L54.336 15L62.734 19.7136L62.354 20.4477L54.374 15.9659L44.798 22.1864V42.3159H49.928V43.2045Z" fill="white"/>
<path d="M51.942 49H51.334C51.334 41.5045 54.526 33.4681 60.074 26.8613L60.53 27.2477C55.058 33.7772 51.942 41.6977 51.942 49Z" fill="white"/>
<path d="M62.9621 26.0114C62.1261 27.2091 60.1881 27.2091 60.1881 27.2091C60.1881 27.2091 59.5801 25.3546 60.4161 24.1568C61.2521 22.9591 62.4681 22.4568 63.1901 22.9591C63.8741 23.5 63.7981 24.8137 62.9621 26.0114Z" fill="white"/>
<path d="M60.0368 27.4022L59.9988 27.2476C59.9608 27.1704 59.3908 25.2385 60.2648 24.0022C61.1388 22.7272 62.5068 22.1863 63.3048 22.7658C63.6848 23.0363 63.9128 23.5772 63.8368 24.234C63.7988 24.8522 63.4948 25.509 63.0768 26.0885C62.2028 27.3249 60.2268 27.3635 60.1508 27.3635H60.0368V27.4022ZM62.5828 22.959C61.9748 22.959 61.1768 23.4226 60.6068 24.234C59.9988 25.1226 60.2268 26.4749 60.3788 26.9385C60.8348 26.8999 62.2028 26.7454 62.8108 25.8567C63.1908 25.3158 63.4188 24.6976 63.4568 24.1954C63.4948 23.7317 63.3808 23.3067 63.0768 23.1135C62.9628 22.9976 62.7728 22.959 62.5828 22.959Z" fill="white"/>
<path d="M57.8328 37.525C56.3508 38.2977 54.2988 37.1773 54.2988 37.1773C54.2988 37.1773 54.7168 34.8977 56.2368 34.125C57.7568 33.3523 59.3148 33.5454 59.7708 34.4727C60.2268 35.4 59.3528 36.7523 57.8328 37.525Z" fill="white"/>
<path d="M56.6153 38.0658C55.3993 38.0658 54.2592 37.4477 54.1832 37.4477L54.0312 37.409L54.0693 37.2545C54.0693 37.1772 54.5253 34.859 56.1213 34.0477C57.7553 33.2363 59.4653 33.4295 59.9213 34.4727C60.4533 35.5158 59.5413 36.984 57.9073 37.7567C57.5273 37.9886 57.0333 38.0658 56.6153 38.0658ZM54.5253 37.1386C54.9813 37.3704 56.5393 37.9886 57.7553 37.409C59.1613 36.7522 59.9973 35.4386 59.5793 34.6272C59.1993 33.8158 57.7173 33.7386 56.3113 34.3954C55.1333 34.9749 54.6393 36.5977 54.5253 37.1386Z" fill="white"/>
<path d="M54.8676 33.584C55.3236 35.2068 53.9176 37.0613 53.9176 37.0613C53.9176 37.0613 51.7516 36.2499 51.2956 34.6272C50.8396 33.0045 51.2576 31.4204 52.2456 31.1499C53.1956 30.8795 54.4116 31.9613 54.8676 33.584Z" fill="white"/>
<path d="M54.0709 37.3704L53.9189 37.3317C53.8429 37.2931 51.6769 36.4817 51.1449 34.7431C50.9169 33.9317 50.8789 33.0817 51.0689 32.3476C51.2589 31.6136 51.6769 31.1113 52.2089 30.9567C52.7789 30.8022 53.3489 30.9954 53.8809 31.4976C54.4129 31.9613 54.8309 32.6954 55.0589 33.5454C55.5909 35.2454 54.1849 37.1386 54.1089 37.2158L54.0709 37.3704ZM52.6269 31.3431C52.5509 31.3431 52.4369 31.3431 52.3609 31.3817C51.9429 31.5363 51.6389 31.9226 51.5249 32.4636C51.3729 33.0817 51.3729 33.8545 51.6009 34.6272C51.9809 35.9022 53.4629 36.6749 53.9569 36.8681C54.2229 36.4431 55.1349 34.9749 54.7549 33.6613C54.5269 32.8886 54.1469 32.2317 53.6909 31.8067C53.2729 31.4976 52.9689 31.3431 52.6269 31.3431Z" fill="white"/>
<path d="M60.569 32.2318C59.049 32.6568 57.377 31.3432 57.377 31.3432C57.377 31.3432 58.137 29.2955 59.619 28.8705C61.101 28.4455 62.5449 28.8318 62.8109 29.7591C63.0769 30.6864 62.0129 31.8068 60.569 32.2318Z" fill="white"/>
<path d="M59.8452 32.5795C58.4772 32.5795 57.2612 31.6136 57.1852 31.5749L57.0332 31.4976L57.0712 31.3431C57.1092 31.2658 57.8692 29.1795 59.4652 28.7545C60.2252 28.5226 61.0232 28.5226 61.6312 28.7158C62.2772 28.909 62.7712 29.2954 62.8852 29.7976C63.1512 30.8408 62.1252 32.0386 60.4912 32.5022C60.3392 32.5408 60.0732 32.5795 59.8452 32.5795ZM57.5652 31.3431C57.9832 31.6136 59.3132 32.4249 60.4152 32.1158C61.7832 31.7295 62.7712 30.6863 62.5432 29.9136C62.4672 29.5272 62.0872 29.2567 61.5552 29.1022C60.9852 28.9476 60.3012 28.9476 59.5792 29.1408C58.4392 29.4886 57.7932 30.8795 57.5652 31.3431Z" fill="white"/>
<path d="M58.4011 28.2136C58.5911 29.7977 57.0331 31.2659 57.0331 31.2659C57.0331 31.2659 55.2091 30.1841 55.0191 28.6C54.8291 27.0159 55.4371 25.625 56.3871 25.5477C57.3371 25.4318 58.2491 26.6295 58.4011 28.2136Z" fill="white"/>
<path d="M57.0727 31.4977L56.9207 31.4204C56.8447 31.3817 54.9827 30.2613 54.7927 28.5999C54.6027 26.8999 55.2487 25.4704 56.3507 25.3158C57.4147 25.1613 58.4027 26.3976 58.5927 28.1363C58.7827 29.7977 57.2247 31.2658 57.1487 31.3817L57.0727 31.4977ZM56.5407 25.7408H56.4647C55.6667 25.8181 55.0967 27.1317 55.2487 28.5613C55.4007 29.759 56.6167 30.7249 57.0347 30.9954C57.3767 30.609 58.4027 29.4886 58.2507 28.2136C58.0607 26.8227 57.3387 25.7408 56.5407 25.7408Z" fill="white"/>
<path d="M98.2585 25.8182V36H97.0256V25.8182H98.2585ZM91.3778 36L94.679 30.6903L91.6562 25.8182H93.1477L95.7926 30.3324H99.5114L102.156 25.8182H103.648L100.605 30.7102L103.906 36H102.494L99.7301 31.4858H95.554L92.7699 36H91.3778ZM111.648 36L108.148 31.3267H106.895V36H105.662V25.8182H106.895V30.233H107.432L111.509 25.8182H112.98L108.864 30.2926L113.119 36H111.648ZM118.93 36V25.8182H120.163V34.9062H124.896V36H118.93ZM128.005 36H126.713L130.452 25.8182H131.724L135.463 36H134.17L131.128 27.429H131.048L128.005 36ZM128.483 32.0227H133.693V33.1165H128.483V32.0227ZM136.649 25.8182L139.672 34.3892H139.791L142.814 25.8182H144.107L140.368 36H139.095L135.357 25.8182H136.649ZM145.375 36H144.083L147.821 25.8182H149.094L152.833 36H151.54L148.497 27.429H148.418L145.375 36ZM145.853 32.0227H151.063V33.1165H145.853V32.0227ZM162.633 25.8182V36H161.439L155.891 28.0057H155.792V36H154.559V25.8182H155.752L161.32 33.8324H161.419V25.8182H162.633ZM168.382 36H165.24V25.8182H168.521C169.509 25.8182 170.354 26.022 171.056 26.4297C171.759 26.834 172.298 27.4157 172.672 28.1747C173.047 28.9304 173.234 29.8352 173.234 30.8892C173.234 31.9498 173.045 32.8629 172.667 33.6286C172.289 34.3909 171.739 34.9775 171.017 35.3885C170.294 35.7962 169.416 36 168.382 36ZM166.473 34.9062H168.302C169.144 34.9062 169.842 34.7438 170.395 34.419C170.949 34.0942 171.361 33.6319 171.633 33.032C171.905 32.4321 172.041 31.7178 172.041 30.8892C172.041 30.0672 171.907 29.3596 171.638 28.7663C171.37 28.1697 170.969 27.7124 170.435 27.3942C169.901 27.0727 169.237 26.9119 168.441 26.9119H166.473V34.9062ZM175.381 36H174.089L177.827 25.8182H179.1L182.839 36H181.546L178.503 27.429H178.424L175.381 36ZM175.859 32.0227H181.069V33.1165H175.859V32.0227ZM188.642 36V25.8182H192.082C192.881 25.8182 193.534 25.9624 194.041 26.2507C194.552 26.5357 194.93 26.9219 195.175 27.4091C195.42 27.8963 195.543 28.4399 195.543 29.0398C195.543 29.6397 195.42 30.1849 195.175 30.6754C194.933 31.166 194.558 31.5571 194.051 31.8487C193.544 32.1371 192.894 32.2812 192.102 32.2812H189.636V31.1875H192.063C192.609 31.1875 193.049 31.093 193.38 30.9041C193.711 30.7152 193.952 30.46 194.101 30.1385C194.253 29.8137 194.33 29.4474 194.33 29.0398C194.33 28.6321 194.253 28.2675 194.101 27.946C193.952 27.6245 193.71 27.3726 193.375 27.1903C193.04 27.0047 192.596 26.9119 192.043 26.9119H189.875V36H188.642ZM197.047 36H195.755L199.493 25.8182H200.766L204.505 36H203.212L200.17 27.429H200.09L197.047 36ZM197.525 32.0227H202.735V33.1165H197.525V32.0227ZM206.231 36V25.8182H209.671C210.466 25.8182 211.119 25.9541 211.63 26.2259C212.14 26.4943 212.518 26.8639 212.763 27.3345C213.009 27.8052 213.131 28.3404 213.131 28.9403C213.131 29.5402 213.009 30.0722 212.763 30.5362C212.518 31.0002 212.142 31.3648 211.635 31.63C211.128 31.8918 210.48 32.0227 209.691 32.0227H206.907V30.9091H209.651C210.195 30.9091 210.632 30.8295 210.964 30.6705C211.298 30.5114 211.54 30.286 211.689 29.9943C211.842 29.6993 211.918 29.348 211.918 28.9403C211.918 28.5327 211.842 28.1764 211.689 27.8714C211.537 27.5665 211.293 27.3312 210.959 27.1655C210.624 26.9964 210.181 26.9119 209.631 26.9119H207.464V36H206.231ZM211.023 31.4261L213.529 36H212.097L209.631 31.4261H211.023ZM215.326 36V25.8182H216.559V30.8693H216.678L221.252 25.8182H222.863L218.587 30.4119L222.863 36H221.371L217.831 31.267L216.559 32.6989V36H215.326Z" fill="white"/>
</svg>
