<svg width="52" height="52" viewBox="0 0 52 52" fill="none" xmlns="http://www.w3.org/2000/svg">
<circle cx="26" cy="26" r="25.5" stroke="#4A3A5E" stroke-opacity="0.15"/>
<path d="M21.6633 16.75H29.8327C32.5412 16.75 34.7459 18.9547 34.7459 21.6633V29.8327C34.7459 32.5412 32.5412 34.7459 29.8326 34.7459H21.6633C18.9547 34.7459 16.75 32.5412 16.75 29.8326V21.6633C16.75 18.9547 18.9547 16.75 21.6633 16.75Z" stroke="#4A3A5E" stroke-width="1.5"/>
<path d="M21.2422 25.7479C21.2422 23.2646 23.2637 21.2432 25.7469 21.2432C28.2302 21.2432 30.2517 23.2646 30.2517 25.7479C30.2517 28.2312 28.2302 30.2527 25.7469 30.2527C23.2637 30.2527 21.2422 28.2312 21.2422 25.7479Z" stroke="#4A3A5E" stroke-width="1.5"/>
<path d="M30.5312 19.7134H30.5346" stroke="#4A3A5E" stroke-width="1.5" stroke-linecap="round" stroke-linejoin="round"/>
</svg>
