<svg width="54" height="54" viewBox="0 0 54 54" fill="none" xmlns="http://www.w3.org/2000/svg">
<circle cx="27" cy="27" r="25.75" stroke="#4A3A5E" stroke-opacity="0.15" stroke-width="1.5"/>
<path d="M33.9996 25.3182C33.9996 31.2045 26.4315 36.25 26.4315 36.25C26.4315 36.25 18.8633 31.2045 18.8633 25.3182C18.8633 23.311 19.6606 21.386 21.08 19.9667C22.4993 18.5474 24.4243 17.75 26.4315 17.75C28.4387 17.75 30.3637 18.5474 31.783 19.9667C33.2023 21.386 33.9996 23.311 33.9996 25.3182Z" stroke="#4A3A5E" stroke-width="1.5" stroke-linecap="round" stroke-linejoin="round"/>
<path d="M26.4309 27.8409C27.8242 27.8409 28.9537 26.7114 28.9537 25.3181C28.9537 23.9249 27.8242 22.7954 26.4309 22.7954C25.0377 22.7954 23.9082 23.9249 23.9082 25.3181C23.9082 26.7114 25.0377 27.8409 26.4309 27.8409Z" stroke="#4A3A5E" stroke-width="1.5" stroke-linecap="round" stroke-linejoin="round"/>
</svg>
