<svg width="52" height="52" viewBox="0 0 52 52" fill="none" xmlns="http://www.w3.org/2000/svg">
<circle cx="26" cy="26" r="25.5" stroke="#4A3A5E" stroke-opacity="0.15"/>
<path d="M33.9995 30.4765V33.1862C34.0004 33.4377 33.9517 33.6867 33.8563 33.9172C33.7609 34.1477 33.6211 34.3546 33.4457 34.5247C33.2702 34.6947 33.0632 34.8242 32.8376 34.9048C32.6121 34.9854 32.3732 35.0153 32.1361 34.9927C29.5059 34.6907 26.9794 33.7409 24.7596 32.2197C22.6943 30.8329 20.9434 28.9827 19.631 26.8003C18.1865 24.4439 17.2875 21.7611 17.0069 18.9692C16.9856 18.7194 17.0137 18.4676 17.0894 18.23C17.1652 17.9923 17.2869 17.7739 17.4469 17.5887C17.6069 17.4034 17.8017 17.2554 18.0188 17.1541C18.2359 17.0528 18.4706 17.0003 18.7079 17.0001H21.2722C21.687 16.9958 22.0891 17.151 22.4037 17.4368C22.7182 17.7227 22.9236 18.1196 22.9817 18.5537C23.0899 19.4208 23.2906 20.2723 23.58 21.0918C23.695 21.4151 23.7199 21.7664 23.6517 22.1042C23.5836 22.442 23.4252 22.752 23.1954 22.9976L22.1098 24.1447C23.3266 26.406 25.0984 28.2784 27.2384 29.5642L28.3239 28.4171C28.5563 28.1742 28.8497 28.0069 29.1694 27.9348C29.489 27.8628 29.8215 27.8891 30.1274 28.0106C30.9029 28.3164 31.7087 28.5285 32.5293 28.6429C32.9445 28.7048 33.3237 28.9258 33.5948 29.2639C33.8658 29.6019 34.0099 30.0335 33.9995 30.4765Z" stroke="#4A3A5E" stroke-width="1.5" stroke-linecap="round" stroke-linejoin="round"/>
</svg>
