<svg width="20" height="20" viewBox="0 0 20 20" fill="none" xmlns="http://www.w3.org/2000/svg">
<path fill-rule="evenodd" clip-rule="evenodd" d="M16.3043 5.43478V1.36206C16.3043 0.609813 15.695 0 14.9423 0H1.36205C0.609812 0 0 0.609393 0 1.36206V14.9423C0 15.6945 0.60939 16.3043 1.36205 16.3043H5.43478V18.6379C5.43478 19.3902 6.04417 20 6.79684 20H18.6379C19.3902 20 20 19.3906 20 18.6379V6.79684C20 6.0446 19.3906 5.43478 18.6379 5.43478H16.3043ZM16.3043 6.79348H18.3054C18.4887 6.79348 18.6413 6.94385 18.6413 7.12934V18.3054C18.6413 18.4887 18.4909 18.6413 18.3054 18.6413H7.12934C6.94607 18.6413 6.79348 18.4909 6.79348 18.3054V16.3043H14.9423C15.6945 16.3043 16.3043 15.695 16.3043 14.9423V6.79348ZM14.9457 1.69455V14.6098C14.9457 14.7931 14.7953 14.9457 14.6098 14.9457H1.69456C1.51128 14.9457 1.3587 14.7953 1.3587 14.6098V1.69455C1.3587 1.51128 1.50907 1.3587 1.69456 1.3587H14.6098C14.7931 1.3587 14.9457 1.50906 14.9457 1.69455Z" fill="#4A4A49"/>
</svg>
