<svg width="20" height="20" viewBox="0 0 20 20" fill="none" xmlns="http://www.w3.org/2000/svg">
<path d="M10 0C4.48571 0 0 4.48571 0 10C0 15.5139 4.48571 20 10 20C15.5139 20 20 15.5139 20 10C20 4.48571 15.5139 0 10 0ZM10 18.75C5.175 18.75 1.25 14.8248 1.25 10C1.25 5.17516 5.17516 1.25 10 1.25C14.8248 1.25 18.75 5.17516 18.75 10C18.75 14.8248 14.8248 18.75 10 18.75Z" fill="#4A4A49"/>
<path d="M14.75 9.46435L7.45835 5.08935C7.26506 4.9734 7.02462 4.97045 6.82887 5.08144C6.63294 5.19227 6.51172 5.39998 6.51172 5.62521V14.3752C6.51172 14.6004 6.63294 14.8083 6.82887 14.919C6.92451 14.9734 7.03069 15.0002 7.13687 15.0002C7.24833 15.0002 7.35947 14.9706 7.45852 14.9111L14.7502 10.5361C14.9385 10.4232 15.0535 10.2199 15.0535 10.0002C15.0535 9.78055 14.9385 9.57719 14.75 9.46433L14.75 9.46435ZM7.76153 13.2714V6.72895L13.2135 10.0001L7.76153 13.2714Z" fill="#4A4A49"/>
</svg>
