<svg width="45" height="45" viewBox="0 0 45 45" fill="none" xmlns="http://www.w3.org/2000/svg">
<rect x="0.5" y="0.5" width="44" height="44" rx="22" stroke="#4A3A5E"/>
<path d="M28.716 26.2538V28.3156C28.7167 28.507 28.6803 28.6964 28.6089 28.8718C28.5376 29.0472 28.4329 29.2046 28.3017 29.334C28.1705 29.4634 28.0156 29.5619 27.8469 29.6232C27.6782 29.6845 27.4994 29.7073 27.3221 29.6901C25.3544 29.4603 23.4644 28.7376 21.8038 27.5802C20.2589 26.5251 18.949 25.1172 17.9673 23.4567C16.8866 21.6638 16.2141 19.6226 16.0042 17.4983C15.9882 17.3082 16.0092 17.1167 16.0659 16.9358C16.1226 16.755 16.2137 16.5888 16.3334 16.4479C16.4531 16.307 16.5988 16.1944 16.7612 16.1173C16.9236 16.0402 17.0991 16.0002 17.2767 16.0001H19.195C19.5053 15.9968 19.8061 16.1149 20.0414 16.3324C20.2767 16.5499 20.4304 16.8519 20.4738 17.1821C20.5548 17.8419 20.7049 18.4898 20.9214 19.1133C21.0074 19.3593 21.0261 19.6266 20.9751 19.8836C20.9241 20.1406 20.8056 20.3765 20.6337 20.5634L19.8216 21.4362C20.7319 23.1568 22.0573 24.5814 23.6582 25.5597L24.4702 24.6869C24.6441 24.5021 24.8636 24.3748 25.1027 24.32C25.3418 24.2652 25.5906 24.2852 25.8194 24.3776C26.3996 24.6103 27.0023 24.7717 27.6162 24.8587C27.9268 24.9058 28.2105 25.074 28.4133 25.3312C28.6161 25.5884 28.7238 25.9168 28.716 26.2538Z" stroke="#4A3A5E" stroke-linecap="round" stroke-linejoin="round"/>
</svg>
